<svg width="20" height="20" viewBox="0 0 20 20" fill="none" xmlns="http://www.w3.org/2000/svg">
<g clip-path="url(#clip0_1_12966)">
<g clip-path="url(#clip1_1_12966)">
<path d="M9.7553 3.85632L9.75528 3.85632C8.21945 3.84542 6.9617 5.08438 6.95008 6.61978L7.00008 6.62015L6.95008 6.61978C6.9385 8.15509 8.17815 9.41343 9.71354 9.425L9.71363 9.425L9.73485 9.42508C11.2605 9.42508 12.5072 8.18982 12.5188 6.66155C12.5303 5.12631 11.2907 3.8679 9.7553 3.85632ZM9.72017 8.54379L9.72015 8.54379C8.67076 8.53588 7.82337 7.67569 7.83129 6.62639C7.83917 5.5818 8.69136 4.73745 9.73407 4.73745L9.74867 4.73753L9.74869 4.73753C10.7981 4.74545 11.6455 5.60563 11.6376 6.65493C11.6296 7.69952 10.7775 8.54387 9.73477 8.54387L9.72017 8.54379Z" fill="black" stroke="black" stroke-width="0.1"/>
<path d="M12.0375 14.7048C14.6357 11.3605 16.2594 9.6165 16.2813 6.69056C16.3088 3.00919 13.3213 0 9.64016 0C6.00203 0 3.02788 2.94641 3.00022 6.59095C2.97788 9.59623 4.63175 11.3378 7.24785 14.7042C4.6453 15.0932 3.00022 16.0704 3.00022 17.2657C3.00022 18.0663 3.7403 18.7848 5.08417 19.2887C6.30734 19.7474 7.92558 20 9.64078 20C11.356 20 12.9742 19.7474 14.1974 19.2887C15.5413 18.7848 16.2813 18.0663 16.2813 17.2656C16.2813 16.071 14.6378 15.094 12.0375 14.7048ZM3.78144 6.59685C3.80581 3.38087 6.42984 0.781252 9.64024 0.781252C12.8886 0.781252 15.5243 3.43704 15.5001 6.68474C15.4793 9.46342 13.7574 11.1758 11.0083 14.7595C10.5179 15.3984 10.0676 16.0025 9.64137 16.5934C9.21637 16.0021 8.77504 15.4089 8.27734 14.7593C5.4146 11.0255 3.76026 9.44256 3.78144 6.59685ZM9.64078 19.2188C6.28722 19.2188 3.78144 18.1877 3.78144 17.2657C3.78144 16.5819 5.27941 15.7182 7.79808 15.4191C8.35484 16.1496 8.84297 16.8132 9.32172 17.4911C9.39485 17.5946 9.51367 17.6562 9.64043 17.6563C9.64055 17.6563 9.64067 17.6563 9.64078 17.6563C9.76742 17.6563 9.88621 17.5949 9.95946 17.4916C10.4337 16.8226 10.9352 16.1425 11.4872 15.4195C14.0035 15.7189 15.5001 16.5824 15.5001 17.2657C15.5001 18.1877 12.9943 19.2188 9.64078 19.2188Z" fill="black" stroke="black" stroke-width="0.2"/>
</g>
</g>
<defs>
<clipPath id="clip0_1_12966">
<rect width="20" height="20" fill="white"/>
</clipPath>
<clipPath id="clip1_1_12966">
<rect width="20" height="20" fill="white"/>
</clipPath>
</defs>
</svg>
