<svg width="52" height="52" viewBox="0 0 52 52" fill="none" xmlns="http://www.w3.org/2000/svg">
<circle cx="26" cy="26" r="26" fill="#208B95"/>
<path d="M29.9539 35C26.7984 35 23.4287 33.8405 20.7941 31.2059C18.1638 28.5756 17 25.2081 17 22.0461C17 19.2593 19.2546 17 22.0461 17C22.2617 17 22.4556 17.1313 22.5357 17.3315L24.7951 22.9799C24.9033 23.2504 24.7717 23.5572 24.5014 23.6654L22.0194 24.6582C22.195 27.5135 24.487 29.8053 27.3418 29.9806L28.3346 27.4987C28.4426 27.2287 28.7493 27.0967 29.0201 27.2049L34.6685 29.4643C34.8687 29.5444 35 29.7383 35 29.9539C35 32.7407 32.7454 35 29.9539 35ZM21.6951 18.0698C19.6755 18.2446 18.0547 19.9382 18.0547 22.0461C18.0547 25.2245 19.2924 28.2127 21.5399 30.4601C23.7873 32.7076 26.7755 33.9453 29.9539 33.9453C32.0611 33.9453 33.7553 32.3255 33.9302 30.3049L29.118 28.38L28.1842 30.7146C28.1041 30.9148 27.9102 31.0461 27.6945 31.0461C23.9775 31.0461 20.9539 28.0225 20.9539 24.306C20.9539 24.0904 21.0852 23.8959 21.2854 23.8158L23.62 22.882L21.6951 18.0698Z" fill="white"/>
</svg>
