<svg width="52" height="52" viewBox="0 0 52 52" fill="none" xmlns="http://www.w3.org/2000/svg">
<circle cx="26" cy="26" r="25.5" stroke="black"/>
<path d="M32.7789 17H19.2227C18.9314 17 18.6953 17.2361 18.6953 17.5273V34.4727C18.6953 34.6859 18.8238 34.8782 19.0209 34.9599C19.2179 35.0414 19.4447 34.9963 19.5956 34.8455L26.0008 28.4403L32.406 34.8455C32.5568 34.9963 32.7836 35.0414 32.9807 34.9599C33.1777 34.8782 33.3062 34.6859 33.3062 34.4727V17.5273C33.3062 17.2361 33.0701 17 32.7789 17ZM32.2515 33.1995L26.3737 27.3217C26.2707 27.2187 26.1357 27.1672 26.0008 27.1672C25.8659 27.1672 25.7309 27.2187 25.6279 27.3217L19.75 33.1995V18.0547H32.2515V33.1995Z" fill="black"/>
</svg>
