<svg width="52" height="52" viewBox="0 0 52 52" fill="none" xmlns="http://www.w3.org/2000/svg">
<circle cx="26" cy="26" r="25.5" stroke="black"/>
<path d="M34.8455 17.1545C34.7083 17.0173 34.5069 16.9665 34.3211 17.0222L18.1886 21.862C17.4776 22.0753 17 22.7172 17 23.4597C17 24.1919 17.4917 24.8437 18.1957 25.0449L25.0086 26.9914L26.9551 33.8043C27.1563 34.5083 27.8081 35 28.5406 35C29.2828 35 29.9247 34.5224 30.138 33.8114L34.9777 17.6789C35.0335 17.4931 34.9827 17.2916 34.8455 17.1545ZM18.0547 23.4595C18.0547 23.1866 18.2303 22.9506 18.4916 22.8722L32.6208 18.6335L25.2817 25.9726L18.4854 24.0308C18.2318 23.9583 18.0547 23.7235 18.0547 23.4595ZM29.1278 33.5084C29.0494 33.7697 28.8134 33.9453 28.5403 33.9453C28.2765 33.9453 28.0417 33.7682 27.9692 33.5146L26.0275 26.7183L33.3665 19.3792L29.1278 33.5084Z" fill="black"/>
</svg>
