<svg width="52" height="52" viewBox="0 0 52 52" fill="none" xmlns="http://www.w3.org/2000/svg">
<circle cx="26" cy="26" r="25.5" stroke="black"/>
<path d="M31.2053 28.1716C31.0886 28.1 30.9564 28.0188 30.7971 27.9141C30.7082 27.8555 30.5965 27.7754 30.478 27.6905C29.8701 27.2549 29.4095 26.9465 29.0173 26.9465C28.9255 26.9465 28.8386 26.9635 28.7594 26.9969C28.4159 27.1413 28.1338 27.5272 27.861 27.9003C27.761 28.037 27.6179 28.2327 27.5311 28.3201C27.1866 28.2518 26.4601 27.7604 25.6761 26.9045C24.8912 26.0476 24.4411 25.2535 24.3793 24.8783C24.4593 24.7832 24.64 24.6258 24.7659 24.5159C25.1064 24.2192 25.4584 23.9124 25.5915 23.5385C25.7612 23.058 25.4502 22.4835 24.9562 21.6619C24.8785 21.5326 24.8051 21.4105 24.7518 21.3142C24.6556 21.1396 24.5812 20.9952 24.5156 20.8679C24.2463 20.3454 24.0683 20 23.3997 20C22.9658 20 22.3522 20.4477 21.9366 20.8917C21.3327 21.5371 21 22.2822 21 22.9912C21.0012 24.9169 21.9856 27.1241 23.7008 29.0489C23.7038 29.0521 23.7067 29.053 23.7098 29.0562C25.4728 30.9289 27.4955 32 29.2594 32H29.2601C29.9086 32 30.5913 31.641 31.1824 30.9819C31.5894 30.5282 32 29.8633 32 29.3898C32 28.6599 31.6839 28.4657 31.2053 28.1716ZM29.2595 31.0051C27.7571 31.0039 25.9244 30.0098 24.3561 28.3459C22.8318 26.6334 21.9213 24.6323 21.9203 22.9922C21.9203 22.0001 23.0995 21.0568 23.4079 21.0051C23.4709 21.0054 23.5039 21.0095 23.5197 21.0124C23.5604 21.0636 23.6415 21.2209 23.7136 21.3609C23.7789 21.4876 23.8602 21.6453 23.9638 21.8332C24.0263 21.9463 24.1044 22.0761 24.187 22.2134C24.3433 22.4735 24.6575 22.9961 24.7105 23.2192C24.6219 23.3561 24.347 23.5956 24.1919 23.7309C23.7947 24.077 23.4518 24.3759 23.4518 24.7984C23.4527 25.8187 24.6566 27.2123 25.0255 27.6151C25.3944 28.0179 26.6708 29.3322 27.6074 29.3332C27.9919 29.3318 28.2645 28.9589 28.5803 28.5272C28.7048 28.3569 28.9255 28.055 29.0514 27.9588C29.2555 28.0163 29.7348 28.3597 29.9732 28.5306C30.099 28.6207 30.2178 28.7058 30.3221 28.7746C30.4935 28.8872 30.638 28.976 30.7541 29.0473C30.8822 29.1261 31.0263 29.2146 31.0732 29.2591C31.0759 29.2762 31.0796 29.3123 31.0799 29.381C31.0322 29.7174 30.1679 31.0039 29.2595 31.0051Z" fill="black"/>
<path d="M35.9991 25.9682C35.9646 23.339 34.8962 20.8546 32.991 18.9724C31.0506 17.0557 28.4893 16 25.7788 16C23.1624 16 20.7147 16.9945 18.8866 18.8004C17.2643 20.4029 16.2691 22.5402 16.0839 24.8186C15.9084 26.9803 16.4654 29.1679 17.655 31.0072L16.0306 35.3447C15.9624 35.5267 16.0103 35.7314 16.1525 35.8654C16.2459 35.9535 16.3683 36 16.4926 36C16.5574 36 16.6228 35.9815 16.6849 35.9554L20.9155 34.177C22.5305 35.17 24.3772 35.6818 26.2735 35.6818H26.2737C28.8897 35.6818 31.3373 34.6991 33.1652 32.8935C35.0273 31.054 36.0338 28.6022 35.9991 25.9682ZM32.4686 32.2173C30.8266 33.8392 28.6265 34.7324 26.2734 34.7324C24.482 34.7323 22.7391 34.2144 21.2331 33.2344C21.1515 33.1813 21.0571 33.1542 20.9622 33.1542C20.897 33.1542 20.8316 33.167 20.7699 33.1929L17.3501 34.6257L18.6651 31.1144C18.7202 30.9674 18.7002 30.8033 18.6115 30.6734C16.1944 27.1362 16.6031 22.4322 19.5831 19.4885C21.2251 17.8664 23.4254 16.973 25.7788 16.973C28.2261 16.973 30.5401 17.9275 32.2944 19.6605C34.0171 21.3621 34.9829 23.6068 35.0142 25.9809C35.0453 28.3501 34.1413 30.5649 32.4686 32.2173Z" fill="black"/>
</svg>
